<mxfile host="app.diagrams.net" modified="2022-01-03T14:30:37.654Z" agent="5.0 (Windows NT 10.0; Win64; x64) AppleWebKit/537.36 (KHTML, like Gecko) Chrome/96.0.4664.110 Safari/537.36" etag="IEYQh-9HskDTyrbfiyMJ" version="16.1.2" type="github" pages="6">
  <diagram id="KrMzK71G1uzwPE4_VKgE" name="DiagramaConceptual">
    <mxGraphModel dx="868" dy="482" grid="1" gridSize="10" guides="1" tooltips="1" connect="1" arrows="1" fold="1" page="1" pageScale="1" pageWidth="827" pageHeight="1169" math="0" shadow="0">
      <root>
        <mxCell id="0" />
        <mxCell id="1" parent="0" />
        <mxCell id="9CYHj0aFYEfQo12m--S_-1" style="edgeStyle=orthogonalEdgeStyle;rounded=0;orthogonalLoop=1;jettySize=auto;html=1;exitX=0.87;exitY=0.65;exitDx=0;exitDy=0;exitPerimeter=0;" edge="1" parent="1" source="9CYHj0aFYEfQo12m--S_-10" target="9CYHj0aFYEfQo12m--S_-3">
          <mxGeometry relative="1" as="geometry" />
        </mxCell>
        <mxCell id="9CYHj0aFYEfQo12m--S_-2" value="" style="group" vertex="1" connectable="0" parent="1">
          <mxGeometry x="185" y="70" width="94.25" height="85.5" as="geometry" />
        </mxCell>
        <mxCell id="9CYHj0aFYEfQo12m--S_-3" value="" style="sketch=0;pointerEvents=1;shadow=0;dashed=0;html=1;strokeColor=none;fillColor=#434445;aspect=fixed;labelPosition=center;verticalLabelPosition=bottom;verticalAlign=top;align=center;outlineConnect=0;shape=mxgraph.vvd.web_browser;" vertex="1" parent="9CYHj0aFYEfQo12m--S_-2">
          <mxGeometry x="2" y="20" width="92.25" height="65.5" as="geometry" />
        </mxCell>
        <mxCell id="9CYHj0aFYEfQo12m--S_-4" value="Banca Virtual" style="text;html=1;align=center;verticalAlign=middle;resizable=0;points=[];autosize=1;strokeColor=none;fillColor=none;" vertex="1" parent="9CYHj0aFYEfQo12m--S_-2">
          <mxGeometry width="90" height="20" as="geometry" />
        </mxCell>
        <mxCell id="9CYHj0aFYEfQo12m--S_-5" value="" style="group" vertex="1" connectable="0" parent="1">
          <mxGeometry x="330" y="50" width="70" height="114" as="geometry" />
        </mxCell>
        <mxCell id="9CYHj0aFYEfQo12m--S_-6" value="" style="aspect=fixed;perimeter=ellipsePerimeter;html=1;align=center;shadow=0;dashed=0;spacingTop=3;image;image=img/lib/active_directory/web_server.svg;" vertex="1" parent="9CYHj0aFYEfQo12m--S_-5">
          <mxGeometry y="38" width="59.733333333333334" height="74.66666666666667" as="geometry" />
        </mxCell>
        <mxCell id="9CYHj0aFYEfQo12m--S_-7" value="BA" style="text;html=1;align=center;verticalAlign=middle;resizable=0;points=[];autosize=1;strokeColor=none;fillColor=none;" vertex="1" parent="9CYHj0aFYEfQo12m--S_-5">
          <mxGeometry x="14.87" y="18" width="30" height="20" as="geometry" />
        </mxCell>
        <mxCell id="9CYHj0aFYEfQo12m--S_-8" style="edgeStyle=orthogonalEdgeStyle;rounded=0;orthogonalLoop=1;jettySize=auto;html=1;entryX=0;entryY=0.5;entryDx=0;entryDy=0;" edge="1" parent="1" source="9CYHj0aFYEfQo12m--S_-3" target="9CYHj0aFYEfQo12m--S_-6">
          <mxGeometry relative="1" as="geometry" />
        </mxCell>
        <mxCell id="9CYHj0aFYEfQo12m--S_-9" value="" style="group" vertex="1" connectable="0" parent="1">
          <mxGeometry x="69" y="80" width="70" height="70" as="geometry" />
        </mxCell>
        <mxCell id="9CYHj0aFYEfQo12m--S_-10" value="" style="verticalLabelPosition=bottom;html=1;verticalAlign=top;align=center;strokeColor=none;fillColor=#00BEF2;shape=mxgraph.azure.user;" vertex="1" parent="9CYHj0aFYEfQo12m--S_-9">
          <mxGeometry x="11" width="47.5" height="50" as="geometry" />
        </mxCell>
        <mxCell id="9CYHj0aFYEfQo12m--S_-11" value="CLIENTE" style="text;html=1;align=center;verticalAlign=middle;resizable=0;points=[];autosize=1;strokeColor=none;fillColor=none;" vertex="1" parent="9CYHj0aFYEfQo12m--S_-9">
          <mxGeometry y="50" width="70" height="20" as="geometry" />
        </mxCell>
      </root>
    </mxGraphModel>
  </diagram>
  <diagram id="Bz0GTLLeudhLU83xgHdH" name="DiagramaDespliegue">
    <mxGraphModel dx="868" dy="482" grid="1" gridSize="10" guides="1" tooltips="1" connect="1" arrows="1" fold="1" page="1" pageScale="1" pageWidth="827" pageHeight="1169" math="0" shadow="0">
      <root>
        <mxCell id="_YSctVdKPvV12GA2VOCD-0" />
        <mxCell id="_YSctVdKPvV12GA2VOCD-1" parent="_YSctVdKPvV12GA2VOCD-0" />
      </root>
    </mxGraphModel>
  </diagram>
  <diagram id="lhI2t7knJ6leEkCeQSSU" name="DiagramaInteraccion">
    <mxGraphModel dx="868" dy="482" grid="1" gridSize="10" guides="1" tooltips="1" connect="1" arrows="1" fold="1" page="1" pageScale="1" pageWidth="827" pageHeight="1169" math="0" shadow="0">
      <root>
        <mxCell id="RGqZYKWncilZxPbHRnBE-0" />
        <mxCell id="RGqZYKWncilZxPbHRnBE-1" parent="RGqZYKWncilZxPbHRnBE-0" />
      </root>
    </mxGraphModel>
  </diagram>
  <diagram id="fRJudiZ02ptBZIQPhdLL" name="DiagramaClases">
    <mxGraphModel dx="868" dy="482" grid="1" gridSize="10" guides="1" tooltips="1" connect="1" arrows="1" fold="1" page="1" pageScale="1" pageWidth="827" pageHeight="1169" math="0" shadow="0">
      <root>
        <mxCell id="2S3Dgcf8WTFQ1u4MjF3P-0" />
        <mxCell id="2S3Dgcf8WTFQ1u4MjF3P-1" parent="2S3Dgcf8WTFQ1u4MjF3P-0" />
      </root>
    </mxGraphModel>
  </diagram>
  <diagram id="xCbBE1qSh6k95swwzCSE" name="DiagramaBasesDatos">
    <mxGraphModel dx="868" dy="482" grid="1" gridSize="10" guides="1" tooltips="1" connect="1" arrows="1" fold="1" page="1" pageScale="1" pageWidth="827" pageHeight="1169" math="0" shadow="0">
      <root>
        <mxCell id="YXxlHyValDLY6gclMBV9-0" />
        <mxCell id="YXxlHyValDLY6gclMBV9-1" parent="YXxlHyValDLY6gclMBV9-0" />
      </root>
    </mxGraphModel>
  </diagram>
  <diagram id="EOyPDhMpXfl0YXKeUh9x" name="DiccionarioDatos">
    <mxGraphModel dx="868" dy="482" grid="1" gridSize="10" guides="1" tooltips="1" connect="1" arrows="1" fold="1" page="1" pageScale="1" pageWidth="827" pageHeight="1169" math="0" shadow="0">
      <root>
        <mxCell id="x241qGOIJ_xgJCy69hyv-0" />
        <mxCell id="x241qGOIJ_xgJCy69hyv-1" parent="x241qGOIJ_xgJCy69hyv-0" />
      </root>
    </mxGraphModel>
  </diagram>
</mxfile>
